<svg width="24" height="24" viewBox="0 0 24 24" fill="none" xmlns="http://www.w3.org/2000/svg">
<path d="M0 12C0 5.37258 5.37258 0 12 0C18.6274 0 24 5.37258 24 12C24 18.6274 18.6274 24 12 24C5.37258 24 0 18.6274 0 12Z" fill="#F7F9FB"/>
<mask id="mask0_8324_6005" style="mask-type:luminance" maskUnits="userSpaceOnUse" x="0" y="0" width="24" height="24">
<path fill-rule="evenodd" clip-rule="evenodd" d="M0 12C0 5.37258 5.37258 0 12 0C18.6274 0 24 5.37258 24 12C24 18.6274 18.6274 24 12 24C5.37258 24 0 18.6274 0 12Z" fill="white"/>
</mask>
<g mask="url(#mask0_8324_6005)">
<path fill-rule="evenodd" clip-rule="evenodd" d="M12.0007 5.6001C10.2625 5.6001 10.0444 5.6077 9.36174 5.63876C8.6804 5.66997 8.21532 5.77783 7.80839 5.9361C7.38745 6.09957 7.03038 6.31824 6.67464 6.67411C6.31864 7.02985 6.09997 7.38692 5.93597 7.80772C5.7773 8.21479 5.6693 8.68 5.63863 9.36107C5.6081 10.0437 5.6001 10.262 5.6001 12.0002C5.6001 13.7383 5.60783 13.9558 5.63876 14.6385C5.6701 15.3198 5.77797 15.7849 5.9361 16.1918C6.0997 16.6127 6.31837 16.9698 6.67424 17.3256C7.02985 17.6816 7.38692 17.9008 7.80759 18.0642C8.21479 18.2225 8.68 18.3304 9.3612 18.3616C10.0439 18.3926 10.2619 18.4002 11.9999 18.4002C13.7382 18.4002 13.9557 18.3926 14.6383 18.3616C15.3197 18.3304 15.7853 18.2225 16.1925 18.0642C16.6133 17.9008 16.9698 17.6816 17.3254 17.3256C17.6814 16.9698 17.9001 16.6127 18.0641 16.1919C18.2214 15.7849 18.3294 15.3197 18.3614 14.6386C18.3921 13.9559 18.4001 13.7383 18.4001 12.0002C18.4001 10.262 18.3921 10.0439 18.3614 9.3612C18.3294 8.67986 18.2214 8.21479 18.0641 7.80785C17.9001 7.38692 17.6814 7.02985 17.3254 6.67411C16.9694 6.31811 16.6134 6.09944 16.1921 5.9361C15.7841 5.77783 15.3187 5.66997 14.6374 5.63876C13.9547 5.6077 13.7374 5.6001 11.9987 5.6001H12.0007ZM11.7872 6.75338H11.7874L12.0007 6.75344C13.7095 6.75344 13.9121 6.75958 14.5869 6.79024C15.2109 6.81878 15.5495 6.92304 15.7751 7.01065C16.0738 7.12665 16.2867 7.26532 16.5106 7.48932C16.7346 7.71332 16.8733 7.92666 16.9895 8.22533C17.0772 8.45066 17.1816 8.78933 17.21 9.41334C17.2406 10.088 17.2473 10.2907 17.2473 11.9987C17.2473 13.7067 17.2406 13.9094 17.21 14.5841C17.1814 15.2081 17.0772 15.5467 16.9895 15.7721C16.8735 16.0707 16.7346 16.2834 16.5106 16.5073C16.2866 16.7313 16.0739 16.8699 15.7751 16.986C15.5498 17.074 15.2109 17.178 14.5869 17.2065C13.9122 17.2372 13.7095 17.2438 12.0007 17.2438C10.2917 17.2438 10.0892 17.2372 9.41454 17.2065C8.79053 17.1777 8.45186 17.0734 8.22613 16.9858C7.92746 16.8698 7.71412 16.7311 7.49012 16.5071C7.26612 16.2831 7.12745 16.0703 7.01118 15.7715C6.92358 15.5462 6.81918 15.2075 6.79078 14.5835C6.76011 13.9089 6.75398 13.7062 6.75398 11.9971C6.75398 10.288 6.76011 10.0864 6.79078 9.41174C6.81931 8.78773 6.92358 8.44906 7.01118 8.22346C7.12718 7.92479 7.26612 7.71145 7.49012 7.48745C7.71412 7.26345 7.92746 7.12478 8.22613 7.00851C8.45173 6.92051 8.79053 6.81651 9.41454 6.78784C10.0049 6.76118 10.2337 6.75318 11.4266 6.75184V6.75344C11.538 6.75327 11.6579 6.75332 11.7872 6.75338ZM14.649 8.58386C14.649 8.15972 14.993 7.81612 15.417 7.81612V7.81585C15.841 7.81585 16.185 8.15986 16.185 8.58386C16.185 9.00787 15.841 9.35187 15.417 9.35187C14.993 9.35187 14.649 9.00787 14.649 8.58386ZM12.0006 8.71346C10.1855 8.71353 8.714 10.1851 8.714 12.0002C8.714 13.8152 10.1856 15.2862 12.0007 15.2862C13.8158 15.2862 15.2869 13.8152 15.2869 12.0002C15.2869 10.1851 13.8156 8.71346 12.0006 8.71346ZM14.1341 12.0002C14.1341 10.8219 13.1788 9.86681 12.0007 9.86681C10.8224 9.86681 9.86734 10.8219 9.86734 12.0002C9.86734 13.1783 10.8224 14.1335 12.0007 14.1335C13.1788 14.1335 14.1341 13.1783 14.1341 12.0002Z" fill="#0B2253"/>
</g>
</svg>
