<svg width="153" height="46" viewBox="0 0 153 46" fill="none" xmlns="http://www.w3.org/2000/svg">
<rect x="0.287109" y="0.375977" width="152.712" height="45.248" rx="4.04" fill="#326CF6"/>
<path d="M72.9894 21.5252C70.8989 21.5252 69.1951 23.1152 69.1951 25.3052C69.1951 27.4819 70.8989 29.0853 72.9894 29.0853C75.0807 29.0853 76.7845 27.4819 76.7845 25.3052C76.7836 23.1152 75.0798 21.5252 72.9894 21.5252ZM72.9894 27.5974C71.8437 27.5974 70.8562 26.6526 70.8562 25.3061C70.8562 23.9454 71.8446 23.0148 72.9894 23.0148C74.135 23.0148 75.1225 23.9454 75.1225 25.3061C75.1225 26.6518 74.135 27.5974 72.9894 27.5974ZM64.7111 21.5252C62.6206 21.5252 60.9168 23.1152 60.9168 25.3052C60.9168 27.4819 62.6206 29.0853 64.7111 29.0853C66.8024 29.0853 68.5062 27.4819 68.5062 25.3052C68.5062 23.1152 66.8024 21.5252 64.7111 21.5252ZM64.7111 27.5974C63.5654 27.5974 62.5779 26.6526 62.5779 25.3061C62.5779 23.9454 63.5663 23.0148 64.7111 23.0148C65.8567 23.0148 66.8442 23.9454 66.8442 25.3061C66.8451 26.6518 65.8567 27.5974 64.7111 27.5974ZM54.8649 22.6859V24.2893H58.7028C58.5881 25.1915 58.2877 25.8501 57.8291 26.3078C57.2709 26.866 56.3972 27.4819 54.8649 27.4819C52.5025 27.4819 50.6556 25.5772 50.6556 23.2148C50.6556 20.8523 52.5025 18.9476 54.8649 18.9476C56.1395 18.9476 57.0701 19.4489 57.7571 20.0933L58.8885 18.9619C57.9286 18.0455 56.655 17.3442 54.8649 17.3442C51.6288 17.3442 48.9082 19.9786 48.9082 23.2148C48.9082 26.4509 51.6288 29.0853 54.8649 29.0853C56.6114 29.0853 57.9295 28.512 58.9596 27.4383C60.0191 26.3789 60.3488 24.8893 60.3488 23.6867C60.3488 23.3152 60.3204 22.9712 60.2626 22.685H54.8649V22.6859ZM95.1347 23.9311C94.8201 23.0868 93.8602 21.5252 91.8986 21.5252C89.9512 21.5252 88.3327 23.0574 88.3327 25.3052C88.3327 27.4241 89.937 29.0853 92.0843 29.0853C93.8166 29.0853 94.8192 28.0258 95.2351 27.4099L93.9464 26.5504C93.5171 27.1806 92.9296 27.5957 92.0843 27.5957C91.24 27.5957 90.6382 27.209 90.2516 26.45L95.3062 24.3595L95.1347 23.9311ZM89.9796 25.1915C89.937 23.7303 91.1111 22.9863 91.9563 22.9863C92.6149 22.9863 93.1731 23.3161 93.3598 23.788L89.9796 25.1915ZM85.8707 28.8569H87.531V17.746H85.8707V28.8569ZM83.1492 22.3704H83.0923C82.7199 21.926 82.0036 21.5252 81.1023 21.5252C79.2118 21.5252 77.4796 23.1863 77.4796 25.3203C77.4796 27.4392 79.2118 29.0862 81.1023 29.0862C82.0044 29.0862 82.7199 28.6853 83.0923 28.2276H83.1492V28.7715C83.1492 30.2176 82.376 30.9909 81.1308 30.9909C80.114 30.9909 79.4838 30.2612 79.2261 29.6452L77.78 30.2469C78.1951 31.2486 79.2972 32.4805 81.1308 32.4805C83.0781 32.4805 84.7251 31.3348 84.7251 28.5422V21.7554H83.1501V22.3704H83.1492ZM81.2454 27.5974C80.0998 27.5974 79.1407 26.6375 79.1407 25.3203C79.1407 23.988 80.0998 23.0148 81.2454 23.0148C82.376 23.0148 83.2639 23.988 83.2639 25.3203C83.2639 26.6375 82.376 27.5974 81.2454 27.5974ZM102.915 17.746H98.9414V28.8569H100.599V24.6475H102.914C104.752 24.6475 106.56 23.317 106.56 21.1972C106.56 19.0774 104.753 17.746 102.915 17.746ZM102.958 23.101H100.599V19.2925H102.958C104.198 19.2925 104.902 20.3191 104.902 21.1972C104.902 22.0575 104.198 23.101 102.958 23.101ZM113.208 21.5056C112.007 21.5056 110.763 22.0344 110.249 23.2068L111.721 23.8209C112.035 23.2068 112.622 23.0059 113.236 23.0059C114.094 23.0059 114.966 23.5205 114.98 24.4351V24.5497C114.679 24.3782 114.036 24.1213 113.25 24.1213C111.664 24.1213 110.048 24.9933 110.048 26.6224C110.048 28.1094 111.349 29.0666 112.807 29.0666C113.921 29.0666 114.536 28.5662 114.922 27.9796H114.979V28.8373H116.581V24.5773C116.581 22.6059 115.108 21.5056 113.208 21.5056ZM113.007 27.5948C112.465 27.5948 111.706 27.3228 111.706 26.6509C111.706 25.7932 112.65 25.4643 113.465 25.4643C114.193 25.4643 114.537 25.6216 114.98 25.8358C114.851 26.866 113.965 27.5948 113.007 27.5948ZM122.413 21.7482L120.512 26.5655H120.455L118.482 21.7482H116.695L119.654 28.4809L117.967 32.2263H119.697L124.257 21.7482H122.413ZM107.476 28.8569H109.133V17.746H107.476V28.8569Z" fill="white"/>
<g filter="url(#filter0_ii_1666_9212)">
<path d="M21.7064 12.041C21.4478 12.3147 21.2949 12.7396 21.2949 13.2897V32.9464C21.2949 33.4975 21.4478 33.9214 21.7064 34.1952L21.7722 34.2592L32.7836 23.2478V23.1181V22.9883L21.7722 11.9761L21.7064 12.041Z" fill="url(#paint0_linear_1666_9212)"/>
<path d="M36.4531 26.9193L32.7832 23.2477V23.1179V22.9881L36.4539 19.3174L36.5366 19.3645L40.8855 21.8354C42.1272 22.5411 42.1272 23.6956 40.8855 24.4022L36.5366 26.8731L36.4531 26.9193Z" fill="url(#paint1_linear_1666_9212)"/>
<g filter="url(#filter1_i_1666_9212)">
<path d="M36.5375 26.8725L32.7833 23.1182L21.707 34.1953C22.1159 34.629 22.7923 34.6823 23.554 34.2504L36.5375 26.8725Z" fill="url(#paint2_linear_1666_9212)"/>
</g>
<path d="M36.5375 19.3637L23.554 11.9867C22.7923 11.5538 22.1159 11.6081 21.707 12.0418L32.7841 23.1189L36.5375 19.3637Z" fill="url(#paint3_linear_1666_9212)"/>
</g>
<defs>
<filter id="filter0_ii_1666_9212" x="21.2949" y="11.688" width="20.5215" height="22.8608" filterUnits="userSpaceOnUse" color-interpolation-filters="sRGB">
<feFlood flood-opacity="0" result="BackgroundImageFix"/>
<feBlend mode="normal" in="SourceGraphic" in2="BackgroundImageFix" result="shape"/>
<feColorMatrix in="SourceAlpha" type="matrix" values="0 0 0 0 0 0 0 0 0 0 0 0 0 0 0 0 0 0 127 0" result="hardAlpha"/>
<feOffset dy="-0.1212"/>
<feComposite in2="hardAlpha" operator="arithmetic" k2="-1" k3="1"/>
<feColorMatrix type="matrix" values="0 0 0 0 0 0 0 0 0 0 0 0 0 0 0 0 0 0 0.12 0"/>
<feBlend mode="normal" in2="shape" result="effect1_innerShadow_1666_9212"/>
<feColorMatrix in="SourceAlpha" type="matrix" values="0 0 0 0 0 0 0 0 0 0 0 0 0 0 0 0 0 0 127 0" result="hardAlpha"/>
<feOffset dy="0.1212"/>
<feComposite in2="hardAlpha" operator="arithmetic" k2="-1" k3="1"/>
<feColorMatrix type="matrix" values="0 0 0 0 1 0 0 0 0 1 0 0 0 0 1 0 0 0 0.25 0"/>
<feBlend mode="normal" in2="effect1_innerShadow_1666_9212" result="effect2_innerShadow_1666_9212"/>
</filter>
<filter id="filter1_i_1666_9212" x="21.707" y="23.1182" width="14.8301" height="11.4307" filterUnits="userSpaceOnUse" color-interpolation-filters="sRGB">
<feFlood flood-opacity="0" result="BackgroundImageFix"/>
<feBlend mode="normal" in="SourceGraphic" in2="BackgroundImageFix" result="shape"/>
<feColorMatrix in="SourceAlpha" type="matrix" values="0 0 0 0 0 0 0 0 0 0 0 0 0 0 0 0 0 0 127 0" result="hardAlpha"/>
<feOffset dy="-0.1212"/>
<feComposite in2="hardAlpha" operator="arithmetic" k2="-1" k3="1"/>
<feColorMatrix type="matrix" values="0 0 0 0 0 0 0 0 0 0 0 0 0 0 0 0 0 0 0.08 0"/>
<feBlend mode="normal" in2="shape" result="effect1_innerShadow_1666_9212"/>
</filter>
<linearGradient id="paint0_linear_1666_9212" x1="31.8075" y1="13.0817" x2="16.8916" y2="27.9976" gradientUnits="userSpaceOnUse">
<stop stop-color="#00A0FF"/>
<stop offset="0.0066" stop-color="#00A1FF"/>
<stop offset="0.2601" stop-color="#00BEFF"/>
<stop offset="0.5122" stop-color="#00D2FF"/>
<stop offset="0.7604" stop-color="#00DFFF"/>
<stop offset="1" stop-color="#00E3FF"/>
</linearGradient>
<linearGradient id="paint1_linear_1666_9212" x1="42.5018" y1="23.1179" x2="20.9965" y2="23.1179" gradientUnits="userSpaceOnUse">
<stop stop-color="#FFE000"/>
<stop offset="0.4087" stop-color="#FFBD00"/>
<stop offset="0.7754" stop-color="#FFA500"/>
<stop offset="1" stop-color="#FF9C00"/>
</linearGradient>
<linearGradient id="paint2_linear_1666_9212" x1="34.4987" y1="25.157" x2="14.271" y2="45.3847" gradientUnits="userSpaceOnUse">
<stop stop-color="#FF3A44"/>
<stop offset="1" stop-color="#C31162"/>
</linearGradient>
<linearGradient id="paint3_linear_1666_9212" x1="18.9174" y1="5.49827" x2="27.9497" y2="14.5305" gradientUnits="userSpaceOnUse">
<stop stop-color="#32A071"/>
<stop offset="0.0685" stop-color="#2DA771"/>
<stop offset="0.4762" stop-color="#15CF74"/>
<stop offset="0.8009" stop-color="#06E775"/>
<stop offset="1" stop-color="#00F076"/>
</linearGradient>
</defs>
</svg>
