<svg width="146" height="45" viewBox="0 0 146 45" fill="none" xmlns="http://www.w3.org/2000/svg">
<rect x="0.628906" width="144.871" height="44.8606" rx="4.04" fill="#326CF6"/>
<path d="M41.98 23.0456C41.9992 21.5515 42.8016 20.1378 44.0745 19.3552C43.2715 18.2084 41.9265 17.4812 40.5271 17.4375C39.0346 17.2808 37.5877 18.3305 36.8272 18.3305C36.0519 18.3305 34.8809 17.453 33.6199 17.479C31.9763 17.5321 30.444 18.4665 29.6444 19.9035C27.9255 22.8796 29.2076 27.2534 30.8542 29.659C31.6781 30.837 32.6409 32.1528 33.9007 32.1062C35.1335 32.055 35.594 31.32 37.0821 31.32C38.5564 31.32 38.9884 32.1062 40.2738 32.0765C41.5966 32.055 42.4301 30.8933 43.225 29.7042C43.8169 28.8648 44.2724 27.9371 44.5746 26.9555C43.02 26.298 41.9818 24.7335 41.98 23.0456Z" fill="white"/>
<path d="M39.5521 15.8554C40.2734 14.9895 40.6287 13.8766 40.5427 12.7529C39.4407 12.8687 38.4228 13.3953 37.6918 14.228C36.9769 15.0415 36.6049 16.1349 36.6752 17.2156C37.7776 17.2269 38.8613 16.7146 39.5521 15.8554Z" fill="white"/>
<path d="M92.4132 18.0212V20.0574H91.1368V21.3928H92.4132V25.9301C92.4132 27.4794 93.1141 28.0992 94.8773 28.0992C95.1872 28.0992 95.4823 28.0623 95.7405 28.018V26.6974C95.5192 26.7195 95.379 26.7343 95.1356 26.7343C94.3461 26.7343 93.9994 26.3654 93.9994 25.5243V21.3928H95.7405V20.0574H93.9994V18.0212H92.4132Z" fill="white"/>
<path d="M100.232 28.2098C102.579 28.2098 104.017 26.6384 104.017 24.034C104.017 21.4445 102.571 19.8656 100.232 19.8656C97.8863 19.8656 96.4402 21.4445 96.4402 24.034C96.4402 26.6384 97.8789 28.2098 100.232 28.2098ZM100.232 26.8007C98.8528 26.8007 98.0781 25.7899 98.0781 24.034C98.0781 22.2929 98.8528 21.2748 100.232 21.2748C101.605 21.2748 102.387 22.2929 102.387 24.034C102.387 25.7826 101.605 26.8007 100.232 26.8007Z" fill="white"/>
<path d="M105.248 28.0549H106.834V23.311C106.834 22.1822 107.683 21.4223 108.885 21.4223C109.166 21.4223 109.638 21.474 109.771 21.5182V19.9542C109.601 19.9099 109.298 19.8878 109.062 19.8878C108.015 19.8878 107.122 20.4632 106.893 21.2526H106.775V20.0206H105.248V28.0549Z" fill="white"/>
<path d="M113.709 21.2157C114.882 21.2157 115.649 22.0347 115.686 23.2963H111.629C111.717 22.0421 112.536 21.2157 113.709 21.2157ZM115.679 25.8859C115.384 26.513 114.727 26.8597 113.768 26.8597C112.499 26.8597 111.68 25.967 111.629 24.5579V24.4693H117.302V23.916C117.302 21.3928 115.952 19.8656 113.717 19.8656C111.452 19.8656 110.013 21.4961 110.013 24.0636C110.013 26.631 111.422 28.2098 113.724 28.2098C115.561 28.2098 116.845 27.3245 117.206 25.8859H115.679Z" fill="white"/>
<path d="M82.011 25.0879C82.1334 27.0608 83.7774 28.3225 86.2244 28.3225C88.8396 28.3225 90.476 26.9996 90.476 24.8891C90.476 23.2298 89.5431 22.3122 87.2797 21.7845L86.0638 21.4863C84.6262 21.1498 84.0451 20.6987 84.0451 19.9111C84.0451 18.917 84.9474 18.267 86.3009 18.267C87.5856 18.267 88.4726 18.9017 88.6332 19.9187H90.3002C90.2008 18.0605 88.5643 16.7529 86.3238 16.7529C83.9151 16.7529 82.3093 18.0605 82.3093 20.0258C82.3093 21.6469 83.2192 22.6104 85.215 23.0768L86.6373 23.4209C88.0979 23.765 88.7402 24.2697 88.7402 25.1109C88.7402 26.0897 87.7308 26.8008 86.3544 26.8008C84.8786 26.8008 83.8539 26.1356 83.7086 25.0879H82.011Z" fill="white"/>
<path d="M65.5795 19.8878C64.4876 19.8878 63.5432 20.4337 63.0563 21.3485H62.9383V20.0206H61.4111V30.7256H62.9973V26.8376H63.1227C63.5432 27.686 64.4507 28.1877 65.5942 28.1877C67.6231 28.1877 68.9142 26.5867 68.9142 24.034C68.9142 21.4813 67.6231 19.8878 65.5795 19.8878ZM65.1294 26.7638C63.8015 26.7638 62.9678 25.7162 62.9678 24.0414C62.9678 22.3593 63.8015 21.3117 65.1368 21.3117C66.4796 21.3117 67.2837 22.3372 67.2837 24.034C67.2837 25.7383 66.4796 26.7638 65.1294 26.7638Z" fill="white"/>
<path d="M74.4646 19.8878C73.3727 19.8878 72.4284 20.4337 71.9415 21.3485H71.8234V20.0206H70.2962V30.7256H71.8824V26.8376H72.0079C72.4284 27.686 73.3358 28.1877 74.4794 28.1877C76.5083 28.1877 77.7994 26.5867 77.7994 24.034C77.7994 21.4813 76.5083 19.8878 74.4646 19.8878ZM74.0146 26.7638C72.6866 26.7638 71.8529 25.7162 71.8529 24.0414C71.8529 22.3593 72.6866 21.3117 74.022 21.3117C75.3647 21.3117 76.1689 22.3372 76.1689 24.034C76.1689 25.7383 75.3647 26.7638 74.0146 26.7638Z" fill="white"/>
<path d="M58.5651 28.0549H60.3851L56.4011 17.0206H54.5582L50.5742 28.0549H52.333L53.35 25.1262H57.5558L58.5651 28.0549ZM55.3917 19.024H55.5217L57.1199 23.6886H53.7859L55.3917 19.024Z" fill="white"/>
</svg>
